<?xml version="1.0" encoding="UTF-8"?>
<svg version="1.1" xmlns="http://www.w3.org/2000/svg" width="805" height="480">
<path d="M0 0 C0.65081543 0.2369458 1.30163086 0.4738916 1.97216797 0.71801758 C6.45086423 2.41494711 10.45277068 4.53946529 14.5625 7 C10.46928107 8.60728492 6.58784899 7.45799258 2.4375 6.625 C-9.63119891 4.2551464 -21.47656846 3.76502372 -33.75 3.75 C-34.5452005 3.74799591 -35.340401 3.74599182 -36.15969849 3.743927 C-50.60188178 3.73501959 -64.26933159 5.16269541 -78.4375 8 C-77.37539307 8.01981934 -76.31328613 8.03963867 -75.21899414 8.06005859 C-71.19112608 8.13746068 -67.16355802 8.22594078 -63.13598633 8.31738281 C-61.40915954 8.35512766 -59.68226854 8.39006327 -57.95532227 8.421875 C-27.53347547 8.9886867 6.09468644 12.63136305 29.2421875 34.55078125 C41.46697294 47.45472144 46.10884095 61.4384269 45.80859375 79.01171875 C43.39296584 118.16022829 17.24138701 149.61815015 -8.4375 177 C-8.4375 173.3286778 -7.37391719 171.68516929 -5.62109375 168.46875 C-5.02482178 167.35773926 -4.4285498 166.24672852 -3.81420898 165.10205078 C-3.4971701 164.51458069 -3.18013123 163.9271106 -2.85348511 163.32183838 C3.29148044 151.88054614 8.83337317 140.4782321 12.5625 128 C12.81354492 127.16839355 13.06458984 126.33678711 13.32324219 125.47998047 C18.77768708 106.82242665 20.92683146 87.11311486 11.8125 69.25 C3.92178032 55.82227165 -7.9698675 48.41791999 -22.4375 43 C-23.7575 43 -25.0775 43 -26.4375 43 C-25.58478516 43.78310547 -25.58478516 43.78310547 -24.71484375 44.58203125 C-11.86353582 56.83261026 -4.84752423 71.6570208 -4.234375 89.53125 C-3.72812996 121.45031987 -16.69405233 150.90514488 -34.4375 177 C-34.89737305 177.68223633 -35.35724609 178.36447266 -35.83105469 179.06738281 C-45.31997912 193.06627675 -55.7608957 206.24101354 -67.26171875 218.640625 C-69.10474857 220.6391708 -70.87210726 222.67315493 -72.625 224.75 C-80.22578043 233.4908975 -88.64662256 241.86653222 -97.49609375 249.33984375 C-99.97194997 251.45702462 -102.35411268 253.66781829 -104.75 255.875 C-109.17760332 259.90836467 -113.70515265 263.76458889 -118.3671875 267.5234375 C-120.65564468 269.36934317 -122.92961801 271.22811708 -125.1953125 273.1015625 C-133.17319315 279.67867234 -141.28396032 285.91695161 -149.76806641 291.82470703 C-151.3741183 292.95537884 -152.95908148 294.11582642 -154.54296875 295.27734375 C-169.92829041 306.53992391 -186.17682553 316.62389659 -202.625 326.25 C-204.09549805 327.11625 -204.09549805 327.11625 -205.59570312 328 C-210.47715448 330.83917858 -215.37353535 333.49365568 -220.48046875 335.90625 C-233.49950088 342.16769738 -239.4980616 347.65407972 -245.38525391 360.82080078 C-258.56460503 388.11520638 -286.70791703 409.95880609 -313.59375 422.16210938 C-315.36414977 422.96666605 -317.11999879 423.80301079 -318.875 424.640625 C-328.43549978 429.02252073 -338.22464459 431.66234829 -348.4375 434 C-349.11635254 434.16661133 -349.79520508 434.33322266 -350.49462891 434.50488281 C-374.79816175 440.3464386 -405.93820189 439.5242552 -429.4375 431 C-426.67408656 429.15772437 -424.9402225 428.44659567 -421.80859375 427.58984375 C-420.86991455 427.3273584 -419.93123535 427.06487305 -418.96411133 426.79443359 C-417.94470459 426.51164551 -416.92529785 426.22885742 -415.875 425.9375 C-378.3103077 415.17233729 -343.52135812 399.79105062 -310.4375 379 C-312.21317406 379.71026962 -313.98882615 380.42059417 -315.7644043 381.13110352 C-317.48040166 381.81726649 -319.19673124 382.50259901 -320.91333008 383.18725586 C-325.98518108 385.2118219 -331.05226215 387.24726044 -336.110672 389.30514526 C-380.32264462 407.28392095 -425.08138014 423.42609932 -471.4375 435 C-472.43265625 435.24911133 -473.4278125 435.49822266 -474.453125 435.75488281 C-505.09685581 443.32742014 -536.04917821 448.77237662 -567.4375 452 C-568.48599121 452.11714355 -569.53448242 452.23428711 -570.61474609 452.35498047 C-623.19183966 458.19302435 -688.5777763 457.43200517 -732.1875 423.375 C-745.18440755 412.80161728 -755.14535108 398.62662942 -758.4375 382 C-758.71485551 379.21420833 -758.76479907 376.45070669 -758.7734375 373.65234375 C-758.7800943 372.87798477 -758.7867511 372.10362579 -758.79360962 371.30580139 C-758.80367241 369.67467598 -758.80842863 368.04350993 -758.80810547 366.41235352 C-758.81244667 363.96753541 -758.84874312 361.52457417 -758.88671875 359.08007812 C-758.98948189 344.99822684 -756.0407681 332.99952858 -750.6875 319.9375 C-750.34605957 319.09388916 -750.00461914 318.25027832 -749.65283203 317.38110352 C-746.99173409 310.97437322 -743.87199987 305.02759959 -740.296875 299.08984375 C-738.60111273 296.27188586 -737.07153994 293.42058573 -735.5625 290.5 C-721.63850296 264.80871199 -698.71721515 239.88621811 -676.62890625 220.91015625 C-674.0629973 218.67356182 -671.5659357 216.36875933 -669.0625 214.0625 C-653.51453196 199.93376065 -636.13249474 187.83376363 -618.55224609 176.3828125 C-616.44919085 175.00764453 -614.35857759 173.61508385 -612.26953125 172.21875 C-610.99254564 171.37445806 -609.71522088 170.53067879 -608.4375 169.6875 C-607.85572998 169.2958667 -607.27395996 168.9042334 -606.67456055 168.50073242 C-605.30094696 167.60475276 -603.87322758 166.79264127 -602.4375 166 C-601.7775 166.33 -601.1175 166.66 -600.4375 167 C-601.06914063 167.51046875 -601.70078125 168.0209375 -602.3515625 168.546875 C-619.53381233 182.51054777 -635.90632496 197.21045052 -651.4375 213 C-654.16419939 215.7403102 -656.90729393 218.46208334 -659.671875 221.1640625 C-665.98220293 227.35925149 -671.96308377 233.56745232 -677.4453125 240.515625 C-679.27611472 242.79874306 -681.19087611 244.92503542 -683.1875 247.0625 C-692.92956609 257.91516162 -701.11300826 270.42427141 -708.4375 283 C-709.17169736 284.21755505 -709.9060803 285.43499822 -710.640625 286.65234375 C-724.9541346 310.77376684 -734.65878074 338.85024458 -728.4375 367 C-726.02392979 375.14806784 -722.674378 382.30642721 -717.4375 389 C-716.82519531 389.79921875 -716.21289062 390.5984375 -715.58203125 391.421875 C-695.41159135 415.79291308 -660.03606447 422.79010791 -630.1171875 425.625 C-579.19872368 430.03805684 -528.99226166 423.48284414 -479.4375 412 C-478.72144592 411.83415405 -478.00539185 411.66830811 -477.26763916 411.49743652 C-390.88144025 391.39053935 -304.60930909 357.38416553 -222.4375 310 C-220.89985367 309.11568702 -219.36209965 308.23156124 -217.82421875 307.34765625 C-202.20138021 298.31658397 -187.22368372 288.33278955 -172.4375 278 C-171.8384082 277.58395508 -171.23931641 277.16791016 -170.62207031 276.73925781 C-161.82922225 270.62354826 -153.42324916 264.11150299 -145.11376953 257.35595703 C-142.80177972 255.4857573 -140.46160456 253.65179905 -138.125 251.8125 C-133.87619665 248.41627577 -129.83395766 244.82562177 -125.81640625 241.16015625 C-123.65478048 239.19730067 -121.46223738 237.2803374 -119.25 235.375 C-116.04488228 232.58906267 -113.05723366 229.64507892 -110.0859375 226.61328125 C-108.4375 225 -108.4375 225 -105.4375 222.5625 C-102.34709648 219.92278032 -99.84135177 217.11363435 -97.21484375 214.02734375 C-95.56869489 212.14964868 -93.86014884 210.41872302 -92.0625 208.6875 C-65.62536519 182.60364539 -38.26622489 141.92450722 -37.125 103.625 C-37.35130043 92.40316091 -39.92753483 83.15616049 -46.4375 74 C-46.82035156 73.37609375 -47.20320312 72.7521875 -47.59765625 72.109375 C-54.11704995 62.80194476 -68.342163 58.30598261 -78.953125 56.38671875 C-84.78976249 55.73893051 -90.57621632 55.7594914 -96.4375 56 C-95.56867187 56.44730469 -94.69984375 56.89460938 -93.8046875 57.35546875 C-81.68548455 63.71330565 -73.29691669 70.26268611 -68.5625 83.75 C-61.84063109 107.09096811 -70.60516153 132.01555106 -81.68261719 152.5793457 C-91.79765616 170.59964438 -104.57621493 187.09326789 -118.72265625 202.1015625 C-120.91620895 204.44345617 -123.03951147 206.8129164 -125.125 209.25 C-130.73035775 215.7124877 -136.85719589 221.62631845 -143.34765625 227.19140625 C-145.7072192 229.23342054 -148.00763415 231.33399528 -150.3125 233.4375 C-155.197247 237.83897675 -160.25221347 241.95941854 -165.4375 246 C-166.40171875 246.75925781 -167.3659375 247.51851563 -168.359375 248.30078125 C-181.90575653 258.864937 -196.04119876 268.6336045 -210.4375 278 C-211.14036133 278.45842285 -211.84322266 278.9168457 -212.56738281 279.38916016 C-260.56142245 310.55891557 -313.02711741 334.38331236 -366.55126953 354.29553223 C-369.31953339 355.32942109 -372.08093856 356.38133062 -374.84375 357.4296875 C-450.3155398 385.71073192 -546.87280166 411.22024144 -654.4375 384 C-663.57741242 379.6851627 -671.32402503 374.20303311 -678.4375 367 C-679.07171875 366.38769531 -679.7059375 365.77539062 -680.359375 365.14453125 C-691.86043499 353.21090927 -694.86369257 338.46764344 -694.80102539 322.5168457 C-694.63921049 313.860108 -693.27685393 306.15903943 -690.4375 298 C-690.20675781 297.32694824 -689.97601562 296.65389648 -689.73828125 295.96044922 C-683.53460926 278.40389337 -673.31541626 263.20016172 -661.4375 249 C-660.72424561 248.1344751 -660.72424561 248.1344751 -659.99658203 247.25146484 C-650.39259365 235.61308668 -640.03460239 224.67895048 -628.4375 215 C-627.59445312 214.27941406 -626.75140625 213.55882812 -625.8828125 212.81640625 C-613.28664676 202.14892171 -600.13022658 192.21580032 -586.4375 183 C-585.7775 183.33 -585.1175 183.66 -584.4375 184 C-585.25347656 184.67160156 -586.06945312 185.34320313 -586.91015625 186.03515625 C-595.43142702 193.17513075 -603.44191979 200.78243747 -611.3125 208.625 C-611.7976004 209.10510529 -612.28270081 209.58521057 -612.78250122 210.0798645 C-619.46433371 216.70522325 -625.58975464 223.62618221 -631.4375 231 C-632.40118786 232.16999764 -633.36694335 233.33829949 -634.3359375 234.50390625 C-653.79418726 258.53515162 -671.17861251 289.04458617 -668.16015625 320.9296875 C-665.67489932 339.154905 -655.8316474 352.29791472 -641.62109375 363.421875 C-626.4480984 373.87664585 -604.58284391 379.44534777 -586.4375 381 C-585.7480127 381.07863281 -585.05852539 381.15726562 -584.34814453 381.23828125 C-577.71894939 381.69146272 -574.4946247 379.5909581 -569.5625 375.375 C-568.07709449 374.17383261 -566.59005391 372.97468496 -565.1015625 371.77734375 C-564.3374707 371.15327637 -563.57337891 370.52920898 -562.78613281 369.88623047 C-558.92410271 366.78456264 -554.93426247 363.86219932 -550.9375 360.9375 C-549.75244873 360.06593262 -549.75244873 360.06593262 -548.54345703 359.17675781 C-541.82794455 354.25104135 -535.03096052 349.44517142 -528.21484375 344.66015625 C-524.2491956 341.8740946 -520.32640246 339.03225648 -516.4140625 336.171875 C-512.57717593 333.37225698 -508.72631949 330.59221548 -504.875 327.8125 C-503.72511597 326.98250488 -503.72511597 326.98250488 -502.55200195 326.13574219 C-500.97397574 324.99672067 -499.39593191 323.85772357 -497.81787109 322.71875 C-495.467713 321.02181533 -493.11846956 319.32362262 -490.76953125 317.625 C-483.44985876 312.33274396 -476.1239241 307.05021644 -468.7668457 301.81005859 C-464.73616844 298.93621175 -460.72368419 296.03794797 -456.71533203 293.13305664 C-449.8607305 288.16693859 -442.98048764 283.25455281 -436.00390625 278.4609375 C-430.4461638 274.63804787 -424.93432667 270.74873287 -419.41455078 266.87133789 C-417.80519056 265.74256155 -416.19380042 264.61667201 -414.58007812 263.49414062 C-413.26997033 262.58052854 -411.96515924 261.65918396 -410.66992188 260.72460938 C-407.7253142 258.64584325 -405.41864126 257.44356372 -401.8125 257.125 C-401.07773437 257.04507812 -400.34296875 256.96515625 -399.5859375 256.8828125 C-397.09107148 257.0188961 -395.62164004 257.83790717 -393.4375 259 C-394.17552887 268.32345337 -395.8389459 277.43223836 -397.5 286.625 C-397.78485256 288.21738582 -398.06936052 289.80983332 -398.35351562 291.40234375 C-399.04420701 295.26895164 -399.73955354 299.13469539 -400.4375 303 C-399.88606323 301.72322388 -399.88606323 301.72322388 -399.32348633 300.4206543 C-397.93580267 297.20903325 -396.54718113 293.99782093 -395.15795898 290.78686523 C-394.56123892 289.40714061 -393.96487402 288.02726232 -393.36889648 286.6472168 C-389.80447449 278.39418588 -386.19856512 270.16599363 -382.4375 262 C-381.7775 262 -381.1175 262 -380.4375 262 C-379.89480469 262.95261719 -379.35210937 263.90523438 -378.79296875 264.88671875 C-378.07034161 266.15366244 -377.34768373 267.42058859 -376.625 268.6875 C-376.26857422 269.31333984 -375.91214844 269.93917969 -375.54492188 270.58398438 C-373.5491542 274.08115525 -371.52481295 277.55626286 -369.4375 281 C-369.6025 279.741875 -369.7675 278.48375 -369.9375 277.1875 C-370.54850312 271.78313436 -370.51134356 266.43069974 -370.4375 261 C-362.88509188 266.16096976 -356.66605378 272.50110387 -350.25561523 278.97607422 C-348.38120148 280.86873814 -346.49891576 282.7532828 -344.61523438 284.63671875 C-339.16151825 290.10691245 -333.76617538 295.57635514 -328.75561523 301.46142578 C-327.09315994 303.40193204 -325.32484076 305.21240089 -323.5 307 C-322.91347656 307.5775 -322.32695312 308.155 -321.72265625 308.75 C-321.08650391 309.36875 -321.08650391 309.36875 -320.4375 310 C-324.89214553 302.21274372 -329.52068373 294.53632517 -334.1875 286.875 C-335.09121338 285.38891235 -335.09121338 285.38891235 -336.01318359 283.87280273 C-338.88896074 279.15105128 -341.77974593 274.44050618 -344.71875 269.7578125 C-345.22180664 268.95102051 -345.72486328 268.14422852 -346.24316406 267.31298828 C-347.17550601 265.81991736 -348.11450113 264.33097087 -349.06152344 262.84716797 C-351.68899858 258.62639352 -353.30136925 254.84749119 -354.4375 250 C-353.4375 249 -353.4375 249 -349.80078125 248.84375 C-343.03826924 248.91872539 -336.33993399 249.75501482 -329.625 250.5 C-327.03535381 250.78306325 -324.44551726 251.06439192 -321.85546875 251.34375 C-320.15040161 251.53227539 -320.15040161 251.53227539 -318.41088867 251.72460938 C-315.27136022 252.06148249 -315.27136022 252.06148249 -311.4375 252 C-312.99645996 251.47043701 -312.99645996 251.47043701 -314.58691406 250.93017578 C-318.44938652 249.61729256 -322.31057343 248.3006637 -326.17138672 246.98291016 C-327.84128654 246.41353038 -329.51153143 245.84516157 -331.18212891 245.27783203 C-333.58588023 244.46132876 -335.98835967 243.64117589 -338.390625 242.8203125 C-339.5080307 242.44206833 -339.5080307 242.44206833 -340.64801025 242.05618286 C-344.02918414 240.89715243 -347.30062514 239.72599735 -350.4375 238 C-350.4375 237.34 -350.4375 236.68 -350.4375 236 C-341.82063324 231.69156662 -332.71288936 229.44141856 -323.4375 227 C-324.07252441 226.98018066 -324.70754883 226.96036133 -325.36181641 226.93994141 C-328.26243326 226.84418878 -331.16237905 226.73471454 -334.0625 226.625 C-335.06152344 226.5940625 -336.06054688 226.563125 -337.08984375 226.53125 C-342.21482101 226.32760852 -346.64018917 226.01388817 -351.4375 224 C-351.71365933 221.03895827 -351.79876954 219.50557553 -350.0390625 217.04296875 C-344.72307495 212.05266423 -339.20218995 207.46251379 -333.4375 203 C-332.07767861 201.9354658 -330.71834212 200.87031204 -329.359375 199.8046875 C-321.34625693 193.53324704 -313.27859072 187.34322934 -305.12426758 181.2565918 C-299.42909366 177.00418582 -293.79491032 172.67628449 -288.16845703 168.33349609 C-282.72797436 164.14225261 -277.26590909 159.97903645 -271.80761719 155.81103516 C-269.32092638 153.91092469 -266.83624709 152.0082017 -264.3515625 150.10546875 C-254.98333026 142.94009349 -245.56719337 135.8515423 -236.05493164 128.87841797 C-230.44237679 124.75846917 -224.90722691 120.55135539 -219.40234375 116.2890625 C-215.50570817 113.28059287 -211.57836945 110.31629675 -207.625 107.3828125 C-205.25060765 105.60783782 -202.90240826 103.81147766 -200.5625 101.9921875 C-199.22938643 100.97367062 -197.89605581 99.95543777 -196.5625 98.9375 C-195.94391113 98.44773682 -195.32532227 97.95797363 -194.68798828 97.45336914 C-191.6505828 95.1590887 -189.96973298 94.06114752 -186.10546875 93.6171875 C-183.4375 94 -183.4375 94 -181.625 95.1875 C-180.09931318 97.51617989 -179.64072467 99.2225962 -179.4375 102 C-180.64380813 105.07036456 -181.92906916 106.65947744 -184.6484375 108.48828125 C-185.30626221 108.93969482 -185.96408691 109.3911084 -186.6418457 109.85620117 C-187.35816162 110.33677979 -188.07447754 110.8173584 -188.8125 111.3125 C-195.57197798 115.96105435 -202.20076857 120.74688438 -208.75 125.6875 C-209.60505127 126.33170898 -210.46010254 126.97591797 -211.34106445 127.63964844 C-213.70781785 129.42475183 -216.07282126 131.2121499 -218.4375 133 C-226.44711704 139.04084779 -234.50648347 145.01203078 -242.59008789 150.95336914 C-247.56022499 154.60798885 -252.50947304 158.28878025 -257.4375 162 C-256.19081717 165.47520914 -254.59276438 168.48759179 -252.62011719 171.60400391 C-234.38089439 200.44169401 -226.33642984 230.61331532 -221.4375 264 C-198.86830055 249.1939649 -177.13084573 233.34896662 -156.4375 216 C-155.8914209 215.54415527 -155.3453418 215.08831055 -154.78271484 214.61865234 C-147.77254362 208.75268331 -141.04637588 202.77502144 -134.66015625 196.22265625 C-132.67726451 194.23976451 -130.64723117 192.42520391 -128.5 190.625 C-123.47834358 186.3221694 -119.1520791 181.37449083 -114.75292969 176.45507812 C-113.5968287 175.17624333 -112.41370849 173.92194393 -111.2265625 172.671875 C-94.02631476 154.38462275 -75.26889509 129.27324873 -74.30859375 103.2578125 C-74.63467056 95.01696209 -77.31961451 87.67356978 -83.4375 82 C-100.49399993 69.6323387 -120.10667935 68.828905 -140.5 68.9375 C-142.14518093 68.9425242 -143.79036335 68.94708548 -145.43554688 68.95117188 C-149.43623498 68.96210658 -153.43685088 68.9793207 -157.4375 69 C-153.91316693 66.21640065 -150.58014098 64.67298963 -146.4375 63 C-154.01321273 63.82130374 -161.58259661 64.68697759 -169.14746094 65.60302734 C-171.10307137 65.83898924 -173.05926963 66.07027574 -175.01660156 66.29150391 C-203.70687269 69.61057449 -232.31697023 83.20553649 -257.41821289 96.88574219 C-258.40942139 97.42102539 -259.40062988 97.95630859 -260.421875 98.5078125 C-261.29553711 98.98879395 -262.16919922 99.46977539 -263.06933594 99.96533203 C-265.4375 101 -265.4375 101 -269.4375 101 C-271.44228812 102.45256647 -271.44228812 102.45256647 -273.3125 104.375 C-276.52734021 107.35504851 -279.07495238 109.01842678 -283.4375 110 C-282.1883258 106.54074837 -280.76222205 103.85306797 -278.4375 101 C-279.365625 101.845625 -280.29375 102.69125 -281.25 103.5625 C-282.83203125 105.00390625 -282.83203125 105.00390625 -284.4375 106 C-285.4275 105.67 -286.4175 105.34 -287.4375 105 C-283.24890628 100.72414391 -279.08506514 96.47870506 -274.5 92.625 C-267.90042688 86.95883264 -262.33283105 80.21745061 -256.6875 73.625 C-253.85324789 70.35315552 -250.84778093 67.66168268 -247.4375 65 C-246.7775 65.33 -246.1175 65.66 -245.4375 66 C-246.9225 70.455 -246.9225 70.455 -248.4375 75 C-247.70789063 74.40574219 -246.97828125 73.81148438 -246.2265625 73.19921875 C-237.13056916 65.93102198 -227.44888697 59.91840516 -217.4375 54 C-215.77026488 53.00094803 -214.10329114 52.00145777 -212.4375 51 C-213.36816284 51.3259314 -213.36816284 51.3259314 -214.31762695 51.65844727 C-217.12525373 52.63584725 -219.93747012 53.59930484 -222.75 54.5625 C-224.21469727 55.07586914 -224.21469727 55.07586914 -225.70898438 55.59960938 C-226.64677734 55.91865234 -227.58457031 56.23769531 -228.55078125 56.56640625 C-229.41485596 56.86490479 -230.27893066 57.16340332 -231.16918945 57.47094727 C-233.4375 58 -233.4375 58 -236.4375 57 C-232.0051625 52.46156931 -227.49884323 48.09878854 -222.68359375 43.96875 C-220.50004609 42.05482301 -218.37839542 40.08364918 -216.26049805 38.09765625 C-191.87591616 15.33293264 -191.87591616 15.33293264 -181.12109375 14.8515625 C-180.23550781 14.90054688 -179.34992187 14.94953125 -178.4375 15 C-178.1075 16.65 -177.7775 18.3 -177.4375 20 C-176.41011719 19.19175781 -175.38273438 18.38351563 -174.32421875 17.55078125 C-163.22241185 8.9378433 -153.22181103 3.27943957 -139.4375 0 C-140.55416174 3.34998521 -141.18444925 3.79340222 -144 5.6875 C-144.64066406 6.12449219 -145.28132812 6.56148437 -145.94140625 7.01171875 C-146.43511719 7.33785156 -146.92882812 7.66398437 -147.4375 8 C-146.59574219 7.64808594 -145.75398437 7.29617187 -144.88671875 6.93359375 C-99.31576082 -11.44871126 -46.6078284 -17.02586225 0 0 Z " fill="#040404" transform="translate(758.4375,24)"/>
<path d="M0 0 C5.58128772 5.00111546 10.99767157 10.15866271 16.27246094 15.48193359 C14.8835347 18.81822032 13.4367387 20.41867721 10.39746094 22.35693359 C9.38039063 23.03369141 9.38039063 23.03369141 8.34277344 23.72412109 C6.27246094 24.48193359 6.27246094 24.48193359 4.38574219 23.93505859 C1.50868782 21.95675134 -1.06021587 19.67185381 -3.66503906 17.35693359 C-9.9337973 11.93623891 -16.5059216 7.56884662 -23.72753906 3.48193359 C-25.40009766 2.49773437 -25.40009766 2.49773437 -27.10644531 1.49365234 C-56.9960268 -15.66225121 -94.56393241 -22.62866079 -128.72753906 -18.51806641 C-129.38753906 -18.18806641 -130.04753906 -17.85806641 -130.72753906 -17.51806641 C-129.01824219 -17.37111328 -129.01824219 -17.37111328 -127.27441406 -17.22119141 C-86.53580887 -13.48206737 -51.11322165 0.88646999 -20.72753906 28.48193359 C-19.84195312 29.27212891 -18.95636719 30.06232422 -18.04394531 30.87646484 C-13.8953516 34.75184095 -13.8953516 34.75184095 -12.72753906 36.48193359 C-13.00234772 38.98108328 -13.39852723 40.16500199 -15.22363281 41.9230957 C-15.86429687 42.36403564 -16.50496094 42.80497559 -17.16503906 43.25927734 C-17.8865918 43.76612061 -18.60814453 44.27296387 -19.3515625 44.79516602 C-20.5276709 45.59917847 -20.5276709 45.59917847 -21.72753906 46.41943359 C-23.38011368 47.57870974 -25.03111835 48.74022663 -26.68066406 49.90380859 C-27.52306641 50.49613281 -28.36546875 51.08845703 -29.23339844 51.69873047 C-33.05339424 54.42986294 -36.76584251 57.2937472 -40.47753906 60.16943359 C-47.76852698 65.79494602 -55.20020005 71.17730759 -62.72753906 76.48193359 C-63.33694336 76.95244141 -63.94634766 77.42294922 -64.57421875 77.90771484 C-66.23810942 79.17328281 -67.97924452 80.33578325 -69.72753906 81.48193359 C-70.71753906 81.15193359 -71.70753906 80.82193359 -72.72753906 80.48193359 C-72.72753906 70.25193359 -72.72753906 60.02193359 -72.72753906 49.48193359 C-75.52567938 57.94312484 -75.52567938 57.94312484 -78.29101562 66.41503906 C-78.64647461 67.46578613 -79.00193359 68.5165332 -79.36816406 69.59912109 C-79.72426758 70.67790527 -80.08037109 71.75668945 -80.44726562 72.86816406 C-81.72753906 75.48193359 -81.72753906 75.48193359 -85.72753906 77.48193359 C-88.36753906 73.19193359 -91.00753906 68.90193359 -93.72753906 64.48193359 C-94.05753906 69.10193359 -94.38753906 73.72193359 -94.72753906 78.48193359 C-100.26172805 73.86919439 -105.3914316 68.9641704 -110.47753906 63.86474609 C-111.29448242 63.04875946 -112.11142578 62.23277283 -112.953125 61.39205933 C-114.67212742 59.67373429 -116.38988014 57.95415823 -118.10644531 56.23339844 C-120.7160097 53.61848658 -123.33085673 51.00894359 -125.94628906 48.39990234 C-127.62369303 46.72183738 -129.30078667 45.04346213 -130.97753906 43.36474609 C-131.7506543 42.59365509 -132.52376953 41.82256409 -133.3203125 41.02810669 C-137.43166279 36.89918797 -141.38423599 32.69328849 -145.16821289 28.26144409 C-147.55955585 25.53243205 -150.13102946 23.01511369 -152.72753906 20.48193359 C-152.34984375 21.06716797 -151.97214844 21.65240234 -151.58300781 22.25537109 C-148.31067865 27.35928496 -145.10282579 32.49328695 -141.9609375 37.67822266 C-137.48141148 45.06895754 -132.89236662 52.37199451 -128.16503906 59.60693359 C-127.35123779 60.85845215 -127.35123779 60.85845215 -126.52099609 62.13525391 C-123.94155526 66.10088268 -121.34656524 70.05405302 -118.71582031 73.98583984 C-117.80242768 75.37995709 -116.88963302 76.77446636 -115.97753906 78.16943359 C-115.55915771 78.77996582 -115.14077637 79.39049805 -114.7097168 80.01953125 C-111.67631495 84.7156249 -110.95244686 88.92972033 -110.72753906 94.48193359 C-114.16356089 96.77261481 -115.40246732 96.73880573 -119.44628906 96.74755859 C-120.66437256 96.75142578 -121.88245605 96.75529297 -123.13745117 96.75927734 C-124.50081908 96.75099027 -125.864182 96.74184645 -127.22753906 96.73193359 C-127.92251495 96.73016113 -128.61749084 96.72838867 -129.33352661 96.7265625 C-146.36171681 96.67683329 -163.37395304 95.92817046 -180.38378906 95.19384766 C-181.45645523 95.14786438 -182.5291214 95.1018811 -183.6342926 95.05450439 C-185.64361828 94.96753327 -187.65285487 94.87846564 -189.66197205 94.7868042 C-195.68820358 94.52318621 -201.69573637 94.43044216 -207.72753906 94.48193359 C-206.69089111 94.70220215 -205.65424316 94.9224707 -204.58618164 95.14941406 C-184.326074 99.45795525 -164.0739508 103.8046696 -143.84579468 108.26104736 C-141.85370856 108.69921979 -139.86121554 109.13554652 -137.86831665 109.57000732 C-135.07282233 110.17998976 -132.27892801 110.79682929 -129.48535156 111.41552734 C-128.65489822 111.59539688 -127.82444489 111.77526642 -126.96882629 111.96058655 C-126.20229233 112.13190598 -125.43575836 112.3032254 -124.64599609 112.47973633 C-123.98213898 112.62579819 -123.31828186 112.77186005 -122.63430786 112.92234802 C-120.51251581 113.54503716 -118.67473591 114.44197385 -116.72753906 115.48193359 C-117.85793032 118.87310738 -118.53147573 119.33833028 -121.34863281 121.34521484 C-122.11046875 121.8954834 -122.87230469 122.44575195 -123.65722656 123.01269531 C-124.48480469 123.60066895 -125.31238281 124.18864258 -126.16503906 124.79443359 C-127.9048468 126.05143808 -129.64308954 127.31061107 -131.37988281 128.57177734 C-132.2691748 129.21743652 -133.1584668 129.8630957 -134.07470703 130.52832031 C-138.18858941 133.5578884 -142.20982934 136.70154064 -146.22753906 139.85693359 C-151.71272274 144.15445219 -157.23254394 148.36878041 -162.89550781 152.43115234 C-166.51634296 155.05313642 -170.09122923 157.73385868 -173.66503906 160.41943359 C-174.35484863 160.93779785 -175.0446582 161.45616211 -175.75537109 161.99023438 C-177.11589166 163.01312161 -178.47624681 164.03622889 -179.83642578 165.05957031 C-182.46475523 167.03641609 -185.0960906 169.00924229 -187.72753906 170.98193359 C-188.68144531 171.69736328 -189.63535156 172.41279297 -190.61816406 173.14990234 C-197.46191406 178.28271484 -197.46191406 178.28271484 -199.44506836 179.77001953 C-200.80859038 180.79270199 -202.17203342 181.81548975 -203.53540039 182.83837891 C-206.87757737 185.34570112 -210.2208599 187.8515079 -213.56738281 190.35302734 C-214.85003689 191.31252644 -216.13258822 192.27216288 -217.41503906 193.23193359 C-218.3776062 193.95207642 -218.3776062 193.95207642 -219.35961914 194.68676758 C-223.28557179 197.63063556 -227.19225729 200.59832862 -231.08691406 203.58349609 C-232.01157471 204.29151367 -232.93623535 204.99953125 -233.88891602 205.72900391 C-235.6888456 207.10867027 -237.48697498 208.49068965 -239.28295898 209.87548828 C-244.6273538 213.97143329 -250.07320932 217.82521059 -255.72753906 221.48193359 C-260.81697935 217.09159225 -263.55345617 211.84904729 -266.60253906 205.91943359 C-267.39253296 204.38403931 -267.39253296 204.38403931 -268.19848633 202.81762695 C-286.38302422 166.6694613 -290.90108375 123.84450577 -281.72753906 84.48193359 C-281.54562012 83.69979492 -281.36370117 82.91765625 -281.17626953 82.11181641 C-274.25520405 53.6482388 -258.64089878 27.75989533 -238.23291016 7.02246094 C-237.00604141 5.76694005 -235.80935538 4.48198217 -234.62207031 3.18896484 C-173.92172807 -61.79926029 -63.62333914 -55.90869457 0 0 Z " fill="#040404" transform="translate(465.7275390625,149.51806640625)"/>
</svg>
